<svg xmlns="http://www.w3.org/2000/svg" viewBox="0 0 1600 900">
  <g fill="#c8c8c8">
    <path d="M140 190 L260 130 L420 180 L470 280 L430 360 L380 400 L360 480 L330 560 L300 660 L260 760 L210 820 L160 760 L140 660 L110 560 L80 470 L90 340 L120 250 Z" />
    <path d="M300 520 L380 560 L420 640 L400 740 L350 820 L290 780 L260 680 L270 580 Z" />
    <path d="M620 150 L860 120 L1120 160 L1360 210 L1520 300 L1500 420 L1380 470 L1240 470 L1140 520 L1060 610 L980 700 L900 690 L840 620 L800 560 L760 520 L720 460 L680 420 L650 340 L620 250 Z" />
    <path d="M860 520 L940 520 L980 580 L960 660 L900 700 L840 660 L820 600 Z" />
    <path d="M1220 700 L1340 710 L1420 760 L1380 820 L1260 810 L1200 760 Z" />
  </g>
</svg>
